PathFileType	4	(X/Y/Z)	D:\TRACE\spot_10-12-23\spot_body_motion_2_1-platform.trc
DataRate	CameraRate	NumFrames	NumMarkers	Units	OrigDataRate	OrigDataStartFrame	OrigNumFrames
100.00	100.00	      76	5	mm	100.00	1	      7000
Frame#	Time	Left_Front			Right_Front			Left_Aft			Right_Aft			Post			
		X1	Y1	Z1	X2	Y2	Z2	X3	Y3	Z3	X4	Y4	Z4	X5	Y5	Z5	

1	0.000	-780.70081	6.41887	-641.47321	791.63708	11.09214	-634.84515	-697.88947	5.59009	496.36627	719.06537	9.63708	582.73688	1.54990	744.01599	-959.50458	
2	0.010	-780.71368	6.42615	-641.52380	791.60980	11.08630	-634.87024	-697.89148	5.58508	496.38181	719.07593	9.62731	582.94055	1.55577	744.02740	-959.42859	
3	0.020	-780.58276	6.29036	-641.52661	791.58856	11.05049	-634.86945	-697.91138	5.61057	496.37494	719.24585	9.20988	582.46771	1.52936	744.02777	-959.35974	
4	0.030	-780.71844	6.36983	-641.47656	791.71680	11.01164	-634.83624	-697.89435	5.56115	496.40802	719.31744	9.31502	582.85065	1.62983	743.98688	-959.34686	
5	0.040	-780.69910	6.39205	-641.47906	791.48419	11.04777	-634.98566	-697.89246	5.66057	496.35870	719.53870	9.91748	581.95886	1.61145	743.94507	-959.37744	
6	0.050	-780.74066	6.40565	-641.46692	791.42236	11.04243	-635.02295	-697.89880	5.64428	496.39627	719.53284	9.91511	581.99945	1.59603	743.88965	-959.34137	
7	0.060	-780.79437	6.46072	-641.47845	791.63226	10.97583	-634.92273	-697.93793	5.60505	496.43423	719.49542	9.92572	582.08899	1.49628	743.93188	-959.45300	
8	0.070	-780.80225	6.45804	-641.43469	791.42828	11.06579	-635.02362	-697.92505	5.60804	496.37616	719.53278	9.97237	582.12244	1.48226	744.00885	-959.50714	
9	0.080	-780.79669	6.48944	-641.48431	791.64313	11.07023	-634.87268	-697.88556	5.60561	496.42273	719.56671	10.02020	582.17920	1.45224	744.04913	-959.56604	
10	0.090	-780.66901	6.40771	-641.51068	791.62396	11.07668	-634.88025	-697.87793	5.60098	496.37790	719.59515	10.03603	582.20331	1.57156	744.03876	-959.57642	
11	0.100	-780.73578	6.40898	-641.48206	791.61096	11.08119	-634.86493	-697.86652	5.62705	496.39017	719.56586	10.03706	582.19684	1.56596	744.03528	-959.63019	
12	0.110	-780.70880	6.41386	-641.48169	791.60846	11.08521	-634.84473	-697.91821	5.57812	496.39081	719.53394	10.02489	582.19855	1.60025	743.99780	-959.62830	
13	0.120	-780.60297	6.30306	-641.52710	791.61542	11.04053	-634.86841	-697.93518	5.56997	496.40042	719.53650	10.03426	582.18903	1.61413	743.98633	-959.55896	
14	0.130	-780.73975	6.41931	-641.48724	791.62982	11.04554	-634.87817	-697.93933	5.63534	496.40964	719.55182	10.08617	582.21057	1.66891	743.99335	-959.53308	
15	0.140	-780.74554	6.43194	-641.49548	791.59589	11.02163	-634.89886	-697.91626	5.62225	496.37283	719.51013	10.04460	582.17590	1.79783	743.99841	-959.46515	
16	0.150	-780.72955	6.40237	-641.50531	791.42413	11.05459	-635.01752	-697.89398	5.61207	496.36234	719.54553	10.09507	582.20245	1.81305	743.96204	-959.44434	
17	0.160	-780.67969	6.37381	-641.52069	791.64276	11.01163	-634.85529	-697.82501	5.61322	496.37482	719.54669	10.04910	582.23059	1.78160	743.98199	-959.41443	
18	0.170	-780.71136	6.36196	-641.43372	791.64423	11.04443	-634.86975	-697.83557	5.59528	496.42575	719.55237	10.09233	582.21198	1.74592	744.00342	-959.43665	
19	0.180	-780.63110	6.33736	-641.51617	791.44727	11.04936	-635.00281	-697.87256	5.60399	496.39835	719.54608	10.05472	582.23590	1.74773	744.04144	-959.45410	
20	0.190	-780.71368	6.40825	-641.51733	791.65588	11.07065	-634.82532	-697.90472	5.56800	496.37729	719.53802	10.07022	582.22064	1.75562	744.03357	-959.46167	
21	0.200	-780.75928	6.44353	-641.49512	791.61328	11.03803	-634.89514	-697.86737	5.60353	496.36960	719.54004	10.07057	582.22369	1.74376	744.06689	-959.48157	
22	0.210	-780.70532	6.39628	-641.51294	791.51520	11.07090	-635.01324	-697.89844	5.60150	496.39590	719.56421	10.09402	582.26117	1.76779	744.02094	-959.46136	
23	0.220	-780.73755	6.43124	-641.45807	791.61829	11.01942	-634.88489	-697.85522	5.60261	496.36099	719.51868	10.10251	582.23804	1.75694	743.98663	-959.41522	
24	0.230	-780.72864	6.39812	-641.45435	791.67358	11.06423	-634.83307	-697.87726	5.61453	496.36566	719.51617	10.08696	582.23785	1.74279	743.97021	-959.42621	
25	0.240	-780.72577	6.37766	-641.47101	791.60406	11.00537	-634.91315	-697.83160	5.60187	496.40018	719.57013	10.11400	582.24908	1.71398	743.97845	-959.51141	
26	0.250	-780.72314	6.38682	-641.51617	791.62103	10.98116	-634.87274	-697.85779	5.58542	496.38089	719.53882	10.10347	582.23358	1.70876	743.99500	-959.54993	
27	0.260	-780.71869	6.41762	-641.48749	791.65277	11.03115	-634.85486	-697.85028	5.60746	496.36810	719.52917	10.08915	582.27881	1.71727	744.00848	-959.56757	
28	0.270	-780.78497	6.47236	-641.46991	791.61987	11.04926	-634.86298	-697.89038	5.58901	496.37515	719.57141	10.12201	582.30225	1.73477	744.05646	-959.55103	
29	0.280	-780.61737	6.34814	-641.53839	791.53375	11.05672	-634.90594	-697.84363	5.59466	496.39874	719.52814	10.08117	582.27551	1.70980	744.03412	-959.60046	
30	0.290	-780.80341	6.48149	-641.49890	791.60480	11.04684	-634.85663	-697.87506	5.56920	496.40021	719.54114	10.08236	582.26331	1.69274	744.04590	-959.50122	
31	0.300	-780.68359	6.36420	-641.48303	791.59784	11.02734	-634.91376	-697.83228	5.62524	496.39127	719.54303	10.10848	582.27399	1.75339	744.03577	-959.50714	
32	0.310	-780.72906	6.37398	-641.50623	791.62720	11.02229	-634.89679	-697.84210	5.59615	496.37967	719.54529	10.07821	582.25507	1.74457	744.01703	-959.49896	
33	0.320	-780.73193	6.39483	-641.47687	791.67377	11.00203	-634.86530	-697.79950	5.58162	496.40009	719.55841	10.09111	582.24512	1.73388	743.99042	-959.44635	
34	0.330	-780.73505	6.37737	-641.46381	791.61273	11.02566	-634.91956	-697.87073	5.58762	496.38947	719.53223	10.13072	582.25317	1.72835	743.94641	-959.45221	
35	0.340	-780.79993	6.51943	-641.48596	791.63684	11.09144	-634.88678	-697.82123	5.64901	496.37714	719.54272	10.12562	582.27191	1.80041	743.98975	-959.41333	
36	0.350	-780.70941	6.35494	-641.47260	791.44714	10.99845	-635.00262	-697.82269	5.63969	496.38388	719.51819	10.03220	582.26440	1.78139	744.04187	-959.42853	
37	0.360	-780.75067	6.34611	-641.44934	791.61981	10.92884	-634.86908	-697.83350	5.61312	496.43011	719.54321	10.10382	582.27661	1.71476	744.02612	-959.42682	
38	0.370	-780.78302	6.41873	-641.48132	791.59644	11.06941	-634.88373	-697.89191	5.58562	496.38260	719.51135	10.03888	582.26117	1.74599	744.02948	-959.42377	
39	0.380	-780.73950	6.43479	-641.47083	791.59332	11.11229	-634.88531	-697.84088	5.57232	496.38239	719.54279	10.06724	582.28424	1.71282	744.04407	-959.48218	
40	0.390	-780.55792	6.28674	-641.49738	791.65674	11.02371	-634.85236	-697.83618	5.61987	496.39291	719.52075	10.13708	582.28241	1.72002	744.01001	-959.45782	
41	0.400	-780.70685	6.34450	-641.47552	791.60205	10.99733	-634.85333	-697.77417	5.55255	496.41489	719.50134	10.09980	582.28021	1.70894	744.04065	-959.46191	
42	0.410	-780.69739	6.36481	-641.49414	791.67297	11.10201	-634.84772	-697.78107	5.63916	496.39182	719.54541	10.07806	582.25848	1.74210	743.97668	-959.51459	
43	0.420	-780.74701	6.35148	-641.51703	791.64722	10.99516	-634.86542	-697.89954	5.62511	496.39124	719.51074	10.09301	582.25330	1.76775	743.92963	-959.45642	
44	0.430	-780.75330	6.40993	-641.46454	791.56573	10.92773	-634.90405	-697.91052	5.60532	496.36401	719.49304	10.13164	582.26758	1.73494	743.92859	-959.49213	
45	0.440	-780.72900	6.39293	-641.46918	791.63593	10.94650	-634.86652	-697.83234	5.59792	496.39810	719.52673	10.07662	582.26422	1.76945	743.93915	-959.54230	
46	0.450	-780.70258	6.35371	-641.45917	791.61163	11.09934	-634.87213	-697.78668	5.63140	496.41678	719.49701	10.08920	582.28406	1.76459	743.99774	-959.56482	
47	0.460	-780.68066	6.37046	-641.48273	791.70404	11.12262	-634.84344	-697.79346	5.62866	496.38846	719.52557	10.12575	582.30939	1.76110	744.02814	-959.59424	
48	0.470	-780.72974	6.40422	-641.46246	791.63855	11.03445	-634.86035	-697.83466	5.59684	496.40991	719.52875	10.05915	582.30035	1.74292	744.02167	-959.56262	
49	0.480	-780.63861	6.32555	-641.51727	791.44135	11.02941	-635.02094	-697.86615	5.59886	496.39191	719.50238	10.06120	582.26471	1.78193	743.98694	-959.52429	
50	0.490	-780.64453	6.33461	-641.53424	791.66956	11.01641	-634.83228	-697.85248	5.56870	496.39212	719.50092	10.09158	582.28052	1.77474	743.96576	-959.41956	
51	0.500	-780.61969	6.29445	-641.48877	791.66791	11.07940	-634.83636	-697.84692	5.64073	496.38391	719.52313	10.15049	582.29449	1.81063	743.96936	-959.37988	
52	0.510	-780.76465	6.39475	-641.45160	791.62775	11.02882	-634.86096	-697.82776	5.61847	496.41788	719.49097	10.09448	582.26868	1.85548	743.97260	-959.45276	
53	0.520	-780.73682	6.37493	-641.47864	791.61145	11.01097	-634.87421	-697.80688	5.69328	496.39737	719.50330	10.10223	582.23376	1.82562	743.96985	-959.37909	
54	0.530	-780.71881	6.39289	-641.52319	791.64166	10.95478	-634.86847	-697.82819	5.58880	496.38101	719.54230	10.11016	582.24530	1.80759	743.92883	-959.42322	
55	0.540	-780.73401	6.32150	-641.47467	791.54596	10.96241	-634.92975	-697.85107	5.55771	496.37930	719.54065	10.08549	582.25525	1.78836	743.92645	-959.41766	
56	0.550	-780.74646	6.34684	-641.44208	791.57336	10.97221	-634.88312	-697.86218	5.61366	496.36972	719.52698	10.09615	582.26208	1.80930	743.95306	-959.47894	
57	0.560	-780.74988	6.40535	-641.45319	791.64771	11.12376	-634.82458	-697.86237	5.62410	496.36887	719.54028	10.08240	582.26239	1.78022	743.99219	-959.48260	
58	0.570	-780.78333	6.45495	-641.47681	791.64880	11.08792	-634.84454	-697.84998	5.63212	496.40689	719.51392	10.11592	582.26398	1.76256	743.99329	-959.50562	
59	0.580	-780.77380	6.46343	-641.48083	791.56091	11.02385	-634.94049	-697.88281	5.61452	496.38046	719.51630	10.06207	582.24927	1.72072	744.02228	-959.61029	
60	0.590	-780.77484	6.38670	-641.46588	791.58844	10.97390	-634.91113	-697.84778	5.60342	496.38995	719.53253	10.06388	582.21722	1.76666	743.93738	-959.57068	
61	0.600	-780.73376	6.35299	-641.46979	791.62598	10.99131	-634.86505	-697.85846	5.60114	496.38571	719.52344	10.07059	582.23792	1.78527	743.92816	-959.48517	
62	0.610	-780.71820	6.37319	-641.47351	791.67004	11.02033	-634.87738	-697.85034	5.61316	496.38068	719.53461	10.10734	582.24243	1.82293	743.94556	-959.48383	
63	0.620	-780.69366	6.38051	-641.51343	791.65643	11.04221	-634.87616	-697.80731	5.60498	496.37411	719.54144	10.07966	582.23065	1.80506	743.91620	-959.45850	
64	0.630	-780.70850	6.40041	-641.49036	791.61414	11.01555	-634.91913	-697.81305	5.63627	496.38028	719.52802	10.07401	582.23840	1.77201	743.96600	-959.47821	
65	0.640	-780.76349	6.40930	-641.50867	791.57166	10.98109	-634.89917	-697.80524	5.62809	496.39175	719.54120	10.05182	582.21649	1.76968	743.96198	-959.51337	
66	0.650	-780.70386	6.40892	-641.50897	791.57642	11.01314	-634.88177	-697.85565	5.58909	496.39667	718.90027	9.27279	582.40143	1.76151	743.95331	-959.49036	
67	0.660	-780.79095	6.42244	-641.45203	791.57477	11.01429	-634.87787	-697.88721	5.58767	496.37561	718.91980	9.38106	582.35809	1.74446	743.97479	-959.44147	
68	0.670	-780.74432	6.43446	-641.48181	791.61975	11.08181	-634.86304	-697.85858	5.62940	496.41379	719.50500	10.00216	582.20355	1.84962	743.96741	-959.45782	
69	0.680	-780.73248	6.38791	-641.46906	791.60907	11.02828	-634.90887	-697.81830	5.60151	496.42444	719.55420	10.02230	582.20343	1.77869	744.00385	-959.48749	
70	0.690	-780.77155	6.41832	-641.49341	791.39777	11.02222	-635.04169	-697.79321	5.56916	496.40018	719.53833	10.04484	582.18604	1.79211	743.96387	-959.43359	
71	0.700	-780.73419	6.39026	-641.49286	791.59961	10.98353	-634.89557	-697.81738	5.60035	496.38538	719.55176	10.05311	582.18329	1.84732	743.93835	-959.40704	
72	0.710	-780.67365	6.34159	-641.51312	791.61938	10.96885	-634.88611	-697.87079	5.59493	496.38828	719.55334	10.03316	582.17334	1.81489	743.93579	-959.43793	
73	0.720	-780.73840	6.41898	-641.46155	791.64819	11.03341	-634.87994	-697.85107	5.60482	496.37445	719.51740	10.02846	582.18835	1.84932	743.92188	-959.42352	
74	0.730	-780.76050	6.44798	-641.47180	791.45386	11.04101	-635.03406	-697.85962	5.63157	496.38498	719.06714	9.51378	582.22284	1.79041	743.93951	-959.50348	
75	0.740	-780.75757	6.42196	-641.50830	791.68280	11.07094	-634.80029	-697.80780	5.63289	496.39380	719.13300	9.57209	582.22516	1.77552	743.98932	-959.54584	
76	0.750	-780.71924	6.36447	-641.45331	791.44342	11.02801	-634.98242	-697.84399	5.62309	496.39511	719.17908	9.61153	582.21686	1.76962	743.95563	-959.55914	
